<svg width="65" height="73" viewBox="0 0 65 73" fill="none" xmlns="http://www.w3.org/2000/svg">
<path d="M9.22213 73L0 65.116L4.56238 59.7905L5.32741 60.444L1.47443 64.9213L4.95185 67.883L8.44318 63.809L9.19431 64.4625L5.70297 68.5366L9.94543 72.1657L9.22213 73Z" fill="white"/>
<path d="M14.9807 66.284L14.2296 67.16L7.87289 55.911L8.65183 55.0072L20.7394 59.5541L19.9882 60.4301L9.38904 56.3699L14.9807 66.284ZM11.9902 62.5714L15.9127 57.9968L16.6638 58.6503L12.7413 63.2667L11.9902 62.5714Z" fill="white"/>
<path d="M21.6157 45.705L20.8924 46.5531C20.5293 46.3491 20.1342 46.2081 19.7239 46.136C19.3183 46.0735 18.9055 46.0735 18.4999 46.136C18.0801 46.2127 17.6759 46.3584 17.3037 46.5671C16.914 46.7995 16.5661 47.0956 16.2743 47.443C15.7836 47.9969 15.4688 48.6842 15.3702 49.4175C15.262 50.1998 15.3828 50.9967 15.718 51.7118C16.134 52.5951 16.7423 53.3742 17.4984 53.9922C18.2327 54.6319 19.0961 55.1061 20.03 55.3827C20.7887 55.6025 21.5942 55.6025 22.3529 55.3827C23.0554 55.1605 23.6817 54.7463 24.1611 54.1869C24.456 53.8413 24.6954 53.4519 24.8705 53.0328C25.0203 52.6365 25.1049 52.2186 25.1209 51.7952C25.1242 51.3805 25.0632 50.9677 24.9401 50.5716C24.8019 50.1796 24.5998 49.8131 24.342 49.487L25.0374 48.6667C25.3812 49.085 25.658 49.5541 25.8581 50.0571C26.2387 51.1036 26.2387 52.2505 25.8581 53.297C25.644 53.8638 25.3282 54.3869 24.9262 54.8404C24.3154 55.5851 23.4973 56.1319 22.5754 56.4116C21.6433 56.6756 20.6561 56.6756 19.7239 56.4116C18.629 56.0958 17.6205 55.5347 16.7751 54.7709C15.8933 54.0526 15.1849 53.1448 14.7025 52.115C14.3052 51.2455 14.1559 50.2831 14.2713 49.3341C14.4044 48.3834 14.8158 47.4932 15.4537 46.7756C15.8454 46.3117 16.3163 45.9209 16.8446 45.6215C17.3322 45.3488 17.8644 45.1652 18.4164 45.0792C19.5143 44.9053 20.6384 45.1271 21.5878 45.705H21.6157Z" fill="white"/>
<path d="M29.6416 49.1533L20.4194 41.2693L25.0374 35.916L25.7886 36.5695L21.9356 41.0747L25.3991 44.0503L29.0156 39.8789L29.7667 40.5185L26.1641 44.6899L29.6416 47.6655L33.5502 43.1048L34.3013 43.7444L29.6416 49.1533Z" fill="white"/>
<path d="M35.9426 41.7977L26.7205 33.9137L29.3912 30.799C29.8176 30.2644 30.3661 29.84 30.9908 29.5615C31.5043 29.3441 32.0713 29.286 32.6182 29.3947C33.1779 29.512 33.6964 29.776 34.1205 30.1594C34.4698 30.4402 34.7504 30.7968 34.9412 31.2023C35.1038 31.5396 35.1757 31.9134 35.1498 32.2869C35.1323 32.6531 35.0424 33.0122 34.8855 33.3436H34.9551C35.2477 33.0564 35.6132 32.8545 36.0122 32.7596C36.4684 32.6419 36.947 32.6419 37.4032 32.7596C37.9465 32.9014 38.4487 33.1692 38.8692 33.5412C39.2897 33.9133 39.6166 34.3791 39.8235 34.901C40.0002 35.4526 40.0002 36.0457 39.8235 36.5973C39.6127 37.303 39.2413 37.9502 38.7385 38.4884L35.9426 41.7977ZM31.6167 36.6251L33.6197 34.2891C33.9121 33.9602 34.1177 33.5635 34.2178 33.135C34.3022 32.7457 34.2732 32.3404 34.1344 31.967C33.9965 31.5735 33.7507 31.2266 33.425 30.9659C33.2114 30.7683 32.9586 30.6179 32.683 30.5245C32.4074 30.431 32.1152 30.3967 31.8254 30.4236C31.4915 30.4728 31.1708 30.5879 30.8819 30.7622C30.5929 30.9364 30.3415 31.1664 30.1423 31.4387L28.2089 33.719L31.6167 36.6251ZM35.9148 40.3238L38.0013 37.8905C38.5625 37.3695 38.9013 36.6524 38.9471 35.8882C38.9394 35.5942 38.8682 35.3054 38.7386 35.0415C38.609 34.7775 38.4239 34.5446 38.196 34.3587C37.8647 34.0701 37.4606 33.8777 37.0276 33.8025C36.5933 33.7195 36.1443 33.763 35.734 33.9276C35.2751 34.1137 34.8691 34.4098 34.5517 34.7897L32.3539 37.2648L35.9148 40.3238Z" fill="white"/>
<path d="M44.7892 22.1503C45.6707 22.871 46.375 23.7844 46.8479 24.82C47.2521 25.6876 47.4062 26.6506 47.293 27.601C47.1554 28.5572 46.7394 29.4518 46.0967 30.1733C45.4906 30.9138 44.6768 31.4561 43.7599 31.7307C42.8231 31.9951 41.8313 31.9951 40.8945 31.7307C39.8056 31.4175 38.802 30.8612 37.9596 30.1038C37.0808 29.3825 36.373 28.4755 35.887 27.448C35.4863 26.5794 35.3323 25.6173 35.4419 24.667C35.587 23.713 35.9941 22.818 36.6179 22.0815C37.2416 21.345 38.0576 20.796 38.975 20.4956C39.9118 20.2312 40.9035 20.2312 41.8404 20.4956C42.9348 20.8195 43.9426 21.385 44.7892 22.1503ZM44.0798 22.9707C43.3648 22.3336 42.5201 21.8592 41.6039 21.5802C40.8446 21.3649 40.0403 21.3649 39.281 21.5802C38.554 21.7985 37.9063 22.2237 37.4171 22.8038C36.9184 23.3758 36.5991 24.0818 36.499 24.8339C36.4065 25.6157 36.5418 26.4075 36.8885 27.1143C37.3022 27.9834 37.9059 28.7484 38.655 29.353C39.37 29.99 40.2148 30.4644 41.131 30.7434C41.8903 30.9587 42.6946 30.9587 43.4539 30.7434C44.1833 30.5304 44.8324 30.1043 45.3178 29.5198C45.8165 28.9478 46.1357 28.2418 46.2358 27.4897C46.3437 26.7088 46.2279 25.9133 45.902 25.1954C45.4714 24.3252 44.8482 23.5644 44.0798 22.9707Z" fill="white"/>
<path d="M53.0098 12.5143C53.8876 13.2331 54.5913 14.141 55.0685 15.1701C55.4699 16.0385 55.6239 17.0008 55.5136 17.951C55.3685 18.9051 54.9614 19.8001 54.3376 20.5366C53.7139 21.2731 52.8979 21.8221 51.9805 22.1225C51.0702 22.3735 50.1089 22.3735 49.1986 22.1225C48.107 21.7988 47.1001 21.2386 46.2497 20.4817C45.368 19.7634 44.6596 18.8556 44.1772 17.8259C43.7798 16.9564 43.6306 15.9939 43.746 15.045C43.8849 14.0886 44.2898 13.1906 44.9144 12.453C45.5391 11.7155 46.3584 11.1682 47.2791 10.8735C48.2091 10.5949 49.2005 10.5949 50.1305 10.8735C51.2004 11.1997 52.184 11.7603 53.0098 12.5143ZM52.3004 13.3347C51.5909 12.6901 50.7444 12.2147 49.8245 11.9442C49.0658 11.7244 48.2603 11.7244 47.5016 11.9442C46.7765 12.1581 46.1321 12.5843 45.6516 13.1678C45.1533 13.7346 44.8339 14.4361 44.7336 15.184C44.6387 15.9689 44.769 16.7646 45.1091 17.4783C45.5275 18.3444 46.1305 19.1085 46.8757 19.717C47.5899 20.3551 48.4349 20.8296 49.3516 21.1074C50.1103 21.3272 50.9158 21.3272 51.6745 21.1074C52.4054 20.8976 53.0554 20.4709 53.5384 19.8838C54.0367 19.317 54.3562 18.6155 54.4565 17.8676C54.5513 17.0827 54.421 16.2871 54.0809 15.5733C53.6564 14.7189 53.0485 13.9688 52.3004 13.3764V13.3347Z" fill="white"/>
<path d="M59.3944 14.4192L50.1723 6.53524L50.8956 5.68705L55.8613 9.94191L55.9309 9.85848L54.8181 1.11238L55.764 0L56.6542 7.592L65 7.91181L64.1237 8.94076L56.8211 8.60705L57.1549 11.0126L60.1455 13.585L59.3944 14.4192Z" fill="white"/>
</svg>
