<svg width="69" height="78" viewBox="0 0 69 78" fill="none" xmlns="http://www.w3.org/2000/svg">
<path d="M0.716311 69.3195L9.84927 77.1707L9.13296 78L0 70.1489L0.716311 69.3195Z" fill="white"/>
<path d="M8.94011 59.6715L18.0731 67.5226L17.3705 68.3381L5.1106 67.177L12.7558 73.7565L11.9844 74.6412L2.85147 66.8176L3.54023 66.0021L15.8277 67.1494L8.26512 60.5008L8.94011 59.6715Z" fill="white"/>
<path d="M17.5496 54.2254C17.2957 54.0372 17.0037 53.9075 16.6942 53.8453C16.3847 53.7832 16.0653 53.7903 15.7588 53.866C15.0703 54.0304 14.4581 54.4253 14.0232 54.9856C13.6787 55.3607 13.4242 55.8099 13.2793 56.2988C13.156 56.7136 13.156 57.1556 13.2793 57.5704C13.3721 57.9761 13.5947 58.3402 13.913 58.6071C14.1329 58.8002 14.3985 58.9335 14.6844 58.9942C14.9571 59.0493 15.2381 59.0493 15.5109 58.9942C15.8011 58.9236 16.0828 58.8216 16.3512 58.6901C16.6221 58.5545 16.8843 58.4022 17.1364 58.2339L18.2384 57.5013C18.5775 57.2743 18.9319 57.0711 19.2991 56.8931C19.667 56.7125 20.0556 56.5779 20.4562 56.4923C20.846 56.4024 21.251 56.4024 21.6408 56.4923C22.0744 56.5969 22.4762 56.8056 22.8117 57.1005C23.2798 57.5023 23.6238 58.0298 23.8036 58.6209C23.976 59.2356 23.976 59.8861 23.8036 60.5008C23.5869 61.2447 23.2055 61.9299 22.6878 62.5051C22.2333 63.0874 21.6543 63.5598 20.9934 63.8873C20.4426 64.1601 19.8289 64.2794 19.2164 64.2329C18.615 64.1788 18.0414 63.9534 17.5634 63.5832L18.3072 62.7262C18.6574 62.9914 19.081 63.1411 19.5195 63.1547C19.9628 63.1513 20.3983 63.0373 20.7868 62.823C21.2259 62.5825 21.6143 62.2585 21.9301 61.8692C22.2882 61.466 22.5642 60.9964 22.7429 60.487C22.8927 60.0415 22.9166 59.563 22.8117 59.1047C22.7112 58.6618 22.4694 58.2638 22.123 57.9713C21.8452 57.7279 21.4983 57.578 21.1312 57.5428C20.752 57.5328 20.3754 57.6084 20.0291 57.764C19.6 57.9501 19.1894 58.1769 18.8032 58.4413L17.5496 59.2568C16.8561 59.7407 16.0584 60.0533 15.2216 60.1691C14.8553 60.2042 14.4858 60.1567 14.1401 60.0299C13.7945 59.9032 13.4816 59.7004 13.2242 59.4365C12.7451 59.0555 12.4059 58.5255 12.2599 57.9298C12.095 57.3329 12.095 56.7022 12.2599 56.1053C12.4563 55.4451 12.7949 54.8364 13.2517 54.3222C13.6786 53.7862 14.2263 53.3598 14.8497 53.0782C15.3948 52.8197 15.9983 52.7101 16.5991 52.7602C17.1861 52.8153 17.7429 53.0465 18.197 53.4237L17.5496 54.2254Z" fill="white"/>
<path d="M17.9078 50.6454L17.1501 50.0096L22.8255 43.361L23.5694 44.0106L21.0898 46.9133L29.4789 54.1148L28.7626 54.9442L20.3735 47.7427L17.9078 50.6454Z" fill="white"/>
<path d="M32.6335 50.4657L31.8758 51.3365L25.5943 40.168L26.352 39.2695L38.3364 43.7757L37.5788 44.6603L27.0821 40.6103V40.6794L32.6335 50.4657ZM29.6718 46.8304L33.5426 42.2828L34.3003 42.9325L30.4157 47.4662L29.6718 46.8304Z" fill="white"/>
<path d="M38.5706 30.824C38.1985 30.648 37.8048 30.5225 37.3997 30.4508C36.9985 30.3817 36.5886 30.3817 36.1875 30.4508C35.7773 30.5245 35.3819 30.6645 35.0166 30.8655C34.621 31.0999 34.2672 31.3989 33.9697 31.7501C33.4733 32.3117 33.1566 33.01 33.0605 33.7544C32.9778 34.5327 33.1163 35.3186 33.46 36.0213C33.8706 36.8807 34.4685 37.6365 35.2094 38.2329C35.9175 38.8661 36.7541 39.3377 37.6614 39.6151C38.4128 39.8336 39.2105 39.8336 39.9619 39.6151C40.6465 39.391 41.261 38.9912 41.7442 38.4553C42.2275 37.9195 42.5628 37.2663 42.7169 36.5603C42.8399 35.909 42.768 35.2356 42.5103 34.6252C42.2093 33.927 41.7351 33.3179 41.1328 32.8559L41.4496 32.6486L38.9425 35.5928L38.1986 34.9431L41.1603 31.4599L41.9179 32.1095C42.6316 32.6994 43.1858 33.4599 43.5296 34.3211C43.8299 35.0953 43.9016 35.9398 43.7363 36.7539C43.5522 37.6053 43.1538 38.3953 42.5792 39.0484C41.9633 39.8046 41.1393 40.3622 40.2098 40.6518C39.2867 40.9142 38.309 40.9142 37.3859 40.6518C36.297 40.3432 35.29 39.7955 34.438 39.0484C33.773 38.4884 33.2011 37.8259 32.7437 37.0856C32.3515 36.4502 32.0806 35.7471 31.9447 35.0122C31.8335 34.325 31.8758 33.6215 32.0687 32.9527C32.2722 32.2579 32.6249 31.6163 33.1018 31.0728C33.4884 30.6028 33.9547 30.205 34.4793 29.8979C34.9718 29.6265 35.508 29.444 36.0635 29.3589C37.1402 29.1861 38.2432 29.4016 39.1767 29.967L38.5706 30.824Z" fill="white"/>
<path d="M47.4005 33.1738L38.2675 25.3227L40.7884 22.3647C41.2487 21.766 41.8498 21.291 42.5378 20.9825C43.11 20.7505 43.7377 20.6928 44.3424 20.8166C44.9699 20.9722 45.5523 21.2734 46.0427 21.6959C46.5332 22.1184 46.918 22.6505 47.1663 23.2493C47.3893 23.8268 47.4278 24.4596 47.2765 25.0601C47.0948 25.7719 46.7398 26.4274 46.2434 26.9676L44.0807 29.5247L43.323 28.8751L45.4582 26.3732C45.8269 25.9825 46.0962 25.5084 46.2434 24.991C46.381 24.5736 46.381 24.1228 46.2434 23.7055C46.0676 23.2676 45.7831 22.8821 45.4169 22.5859C45.0613 22.2624 44.6301 22.0342 44.1633 21.9224C43.7294 21.8258 43.2762 21.8694 42.8684 22.0468C42.3661 22.2608 41.9255 22.5983 41.5873 23.0282L39.7966 25.1292L48.1857 32.3307L47.4005 33.1738ZM46.7255 25.5853L52.7728 26.8708L51.9463 27.8384L45.9265 26.5391L46.7255 25.5853Z" fill="white"/>
<path d="M54.536 24.7974L53.7784 25.6683L47.4969 14.4997L48.2132 13.6013L60.1976 18.1074L59.44 18.992L48.9433 14.9421L54.536 24.7974ZM51.5744 21.1621L55.4452 16.5869L56.2028 17.2228L52.3458 21.798L51.5744 21.1621Z" fill="white"/>
<path d="M52.4698 8.66667L53.2963 7.6991L64.096 11.21V11.1271L59.0405 0.96757L59.867 0L69 7.85114L68.325 8.63902L60.9553 2.29452V2.37746L65.6802 11.7905L65.0327 12.5508L54.9631 9.31632L62.3328 15.647L61.6578 16.4349L52.4698 8.66667Z" fill="white"/>
</svg>
