<svg width="64" height="69" viewBox="0 0 64 69" fill="none" xmlns="http://www.w3.org/2000/svg">
<path d="M0.739726 64.7414L0 64.1115L5.64384 57.5114L6.38356 58.1413L3.91781 61.0306L12.3288 68.1784L11.6164 69L3.20548 61.8658L0.739726 64.7414Z" fill="white"/>
<path d="M16.2466 63.5227L7.16438 55.745L11.6712 50.4731L12.4247 51.1167L8.61644 55.5533L12.0411 58.4836L15.6027 54.3757L16.3425 55.0192L12.7808 59.1272L16.2055 62.0576L20.0822 57.5114L20.8356 58.155L16.2466 63.5227Z" fill="white"/>
<path d="M22.4247 56.3064L13.3425 48.5287L14.0548 47.7071L22.3836 54.8412L26.0959 50.5142L26.8356 51.1441L22.4247 56.3064Z" fill="white"/>
<path d="M28.3425 49.405L19.2603 41.6273L23.7671 36.3554L24.5068 36.999L20.7123 41.4356L24.137 44.3659L27.6849 40.258L28.4384 40.9016L24.8767 45.0095L28.3014 47.9262L32.1781 43.4074L32.9178 44.051L28.3425 49.405Z" fill="white"/>
<path d="M33.6438 30.5769C33.2754 30.3986 32.8833 30.274 32.4795 30.2072C32.0805 30.1387 31.6729 30.1387 31.274 30.2072C30.8667 30.2656 30.4754 30.4053 30.1233 30.618C29.6021 30.915 29.1558 31.3274 28.8187 31.8234C28.4815 32.3195 28.2624 32.8861 28.1781 33.4799C28.0857 34.2453 28.219 35.0211 28.5616 35.7118C28.9737 36.5648 29.5675 37.3173 30.3014 37.9165C31.0075 38.541 31.8388 39.0078 32.7397 39.2858C33.4869 39.5022 34.2802 39.5022 35.0274 39.2858C35.7083 39.0637 36.3193 38.6677 36.7998 38.1369C37.2804 37.606 37.6138 36.9589 37.7671 36.2596C37.8881 35.6154 37.8215 34.95 37.5753 34.3425C37.2635 33.6546 36.7942 33.0495 36.2055 32.5761L36.5069 32.3844L34.0685 35.3284L33.3151 34.6849L36.274 31.2342L37.0137 31.8778C37.7353 32.4507 38.289 33.2076 38.6164 34.0687C38.9157 34.8354 38.9871 35.6723 38.8219 36.4787C38.6389 37.3222 38.2427 38.1047 37.6712 38.7517C37.0616 39.5039 36.2412 40.057 35.3151 40.3401C34.3971 40.6001 33.4249 40.6001 32.5068 40.3401C31.4331 40.021 30.4451 39.4641 29.6164 38.7107C28.9526 38.1639 28.3833 37.5116 27.9315 36.7799C27.5374 36.1489 27.272 35.4462 27.1507 34.7122C27.0403 34.036 27.0824 33.3436 27.274 32.6857C27.4659 31.996 27.8126 31.3591 28.2877 30.8234C28.675 30.3607 29.1383 29.9671 29.6575 29.6595C30.1473 29.3905 30.6805 29.2098 31.2329 29.1254C31.768 29.0363 32.3142 29.0363 32.8493 29.1254C33.3681 29.2365 33.8669 29.4258 34.3288 29.6868L33.6438 30.5769Z" fill="white"/>
<path d="M42.4658 32.8637L33.3836 25.0859L35.8904 22.1556C36.3482 21.5624 36.9459 21.092 37.6301 20.7863C38.1992 20.5564 38.8233 20.4993 39.4247 20.622C40.0538 20.7715 40.6369 21.0723 41.1233 21.4983C41.6169 21.9076 41.9986 22.4352 42.2329 23.0319C42.4547 23.6041 42.4929 24.2309 42.3425 24.8258C42.1618 25.531 41.8088 26.1803 41.3151 26.7154L39.1781 29.2076L38.4247 28.564L40.5342 26.0855C40.9009 25.6985 41.1688 25.2288 41.3151 24.7162C41.4299 24.2954 41.4059 23.8488 41.2466 23.4427C41.0718 23.0089 40.7889 22.6271 40.4247 22.3336C40.0711 22.0131 39.6423 21.7871 39.1781 21.6763C38.7466 21.5807 38.2959 21.6238 37.8904 21.7996C37.3908 22.0116 36.9527 22.3459 36.6164 22.7718L34.8356 24.8531L43.1781 31.9873L42.4658 32.8637ZM41.7945 25.3461L47.8082 26.6196L46.9863 27.5781L41.0959 26.3046L41.7945 25.3461Z" fill="white"/>
<path d="M49.6027 24.5656L48.863 25.4283L42.6164 14.3642L43.3699 13.4741L55.2877 17.9381L54.5342 18.8144L44.0959 14.8023L49.6027 24.5656ZM46.6712 20.9643L50.5205 16.4318L51.2603 17.0617L47.411 21.5668L46.6712 20.9643Z" fill="white"/>
<path d="M47.5616 8.58563L48.3836 7.62711L59.1096 11.1052L59.1781 11.023L54.0959 0.958524L54.9178 0L64 7.77773L63.3288 8.55825L56 2.27307L55.9315 2.35523L60.6438 11.6803L60 12.4334L50.0411 9.22921L57.3699 15.5007L56.6986 16.2812L47.5616 8.58563Z" fill="white"/>
</svg>
