<svg width="55" height="56" viewBox="0 0 55 56" fill="none" xmlns="http://www.w3.org/2000/svg">
<path d="M0.748488 51.7405L0 51.1105L5.71069 44.5228L6.45917 45.1665L3.96421 48.0426L12.4748 55.1782L11.754 56L3.24345 48.8644L0.748488 51.7405Z" fill="white"/>
<path d="M18.1439 48.5494L6.8057 43.2627L7.52646 42.4684L17.2291 47.0976V47.0291L11.158 38.2363L11.9897 37.2776L21.6923 41.9068V41.8247L15.5658 33.0866L16.3004 32.2375L23.3833 42.4684L22.6071 43.3449L13.0015 38.9074L18.9617 47.6044L18.1439 48.5494Z" fill="white"/>
<path d="M18.435 29.827L27.6247 37.6063L26.904 38.4417L17.7142 30.6624L18.435 29.827Z" fill="white"/>
<path d="M20.6943 28.7724L19.9458 28.1287L25.6565 21.5546L26.405 22.1846L23.91 25.0608L32.3513 32.1964L31.6305 33.0318L23.1893 25.8962L20.6943 28.7724Z" fill="white"/>
<path d="M27.7218 20.678L26.9594 20.0343L32.6701 13.4603L33.4186 14.0903L30.9236 16.9664L39.3649 24.102L38.6442 24.9375L30.1752 17.8156L27.7218 20.678Z" fill="white"/>
<path d="M43.3291 19.4728L34.1532 11.7072L38.7135 6.43421L39.4619 7.07793L35.6225 11.5154L39.0738 14.4327L42.6777 10.3239L43.44 10.9539L39.8362 15.0627L43.3014 17.9936L47.224 13.474L47.9725 14.104L43.3291 19.4728Z" fill="white"/>
<path d="M49.5943 12.255L40.4045 4.48938L42.9688 1.55844C43.4297 0.968528 44.0291 0.498443 44.7152 0.188843C45.2928 -0.0177034 45.9183 -0.0557381 46.5171 0.0792749C47.1506 0.226155 47.7368 0.527509 48.222 0.955818C48.7283 1.36183 49.1198 1.89023 49.3586 2.48977C49.5758 3.05878 49.6144 3.67922 49.4695 4.27025C49.2872 4.97985 48.9301 5.63386 48.4299 6.17399L46.2676 8.66666L45.4914 8.02295L47.6399 5.48919C48.0058 5.09841 48.2761 4.62985 48.4299 4.11959C48.5628 3.70516 48.5628 3.2603 48.4299 2.84586C48.2492 2.41044 47.958 2.02837 47.5844 1.73649C47.2299 1.41892 46.8013 1.19305 46.3369 1.07908C45.8753 0.963813 45.3881 1.00233 44.9509 1.18865C44.4543 1.41542 44.0178 1.75298 43.6757 2.17476L41.8737 4.25655L50.3012 11.3922L49.5943 12.255ZM48.9151 4.74961L55 6.02333L54.1684 6.98205L48.0973 5.61245L48.9151 4.74961Z" fill="white"/>
</svg>
