<svg width="59" height="63" viewBox="0 0 59 63" fill="none" xmlns="http://www.w3.org/2000/svg">
<path d="M0 58.4493L0.830206 57.4751L7.51337 58.4493H7.58255L5.53471 51.9085L6.36492 50.9344L8.731 58.7416L12.7022 62.165L11.9965 63L8.03917 59.5765L0 58.4493Z" fill="white"/>
<path d="M18.2645 46.3141C19.1383 47.0385 19.8383 47.9518 20.3124 48.9861C20.7145 49.8544 20.8678 50.8183 20.7552 51.7694C20.6238 52.7254 20.2147 53.621 19.579 54.3439C18.9707 55.0854 18.1566 55.628 17.2406 55.9026C16.3134 56.1668 15.3313 56.1668 14.4041 55.9026C13.3165 55.5897 12.3136 55.033 11.4707 54.2744C10.5998 53.5605 9.89591 52.6625 9.40901 51.6441C9.01441 50.7737 8.866 49.8106 8.98007 48.8608C9.10918 47.9083 9.5188 47.0165 10.1562 46.3002C10.7469 45.5462 11.546 44.9846 12.4531 44.6859C13.3804 44.4216 14.3624 44.4216 15.2896 44.6859C16.3919 44.9929 17.4096 45.5499 18.2645 46.3141ZM17.5589 47.1352C16.8497 46.4947 16.0087 46.0195 15.0959 45.7435C14.3406 45.5281 13.5405 45.5281 12.7852 45.7435C12.0649 45.9674 11.4225 46.3923 10.9326 46.9687C10.4428 47.5451 10.1256 48.2495 10.0178 49C9.92615 49.781 10.0557 50.5721 10.3914 51.2823C10.8076 52.1492 11.4074 52.9139 12.1487 53.5229C12.8599 54.1604 13.7002 54.6353 14.6116 54.9145C15.367 55.13 16.167 55.13 16.9224 54.9145C17.6494 54.7045 18.296 54.2775 18.7765 53.6899C19.2726 53.1174 19.5902 52.4108 19.6897 51.6581C19.7976 50.8778 19.6874 50.0827 19.3715 49.3618C18.9372 48.4947 18.3183 47.7345 17.5589 47.1352Z" fill="white"/>
<path d="M20.6306 34.1928L21.3501 33.3579L27.4245 38.5765C28.0189 39.0788 28.4681 39.7325 28.7251 40.4692C28.962 41.1876 29.0003 41.9572 28.8358 42.6958C28.6387 43.5114 28.2387 44.2632 27.6735 44.8807C27.1426 45.5065 26.4615 45.9856 25.6949 46.2724C24.9967 46.5523 24.2345 46.6295 23.4948 46.495C22.7342 46.3636 22.025 46.0214 21.447 45.507L15.4003 40.3579L16.1198 39.5089L22.1388 44.6859C22.5835 45.0864 23.1293 45.356 23.7162 45.4652C24.2817 45.5815 24.8687 45.5283 25.4043 45.3121C25.9949 45.0796 26.5148 44.6958 26.9125 44.1988C27.3432 43.7229 27.6435 43.1427 27.7842 42.5149C27.9076 41.9498 27.8692 41.3611 27.6735 40.8171C27.4559 40.2729 27.1034 39.7939 26.6496 39.4254L20.6306 34.1928Z" fill="white"/>
<path d="M23.6332 32.2167L22.8722 31.5626L28.5729 24.8688L29.3201 25.5229L26.8295 28.4453L35.2561 35.6958L34.5366 36.5447L26.1238 29.2247L23.6332 32.2167Z" fill="white"/>
<path d="M35.3253 16.9503L36.031 16.1014L42.1053 21.334C42.7002 21.8301 43.1498 22.4795 43.406 23.2127C43.6429 23.9311 43.6811 24.7008 43.5167 25.4394C43.328 26.2565 42.9378 27.0127 42.382 27.6382C41.854 28.2776 41.1798 28.779 40.4172 29.0994C39.7044 29.3767 38.9292 29.4507 38.1773 29.3132C37.4253 29.1756 36.7257 28.832 36.1555 28.3201L30.0811 23.1014L30.8007 22.2525L36.8197 27.4294C37.267 27.8286 37.8111 28.1022 38.397 28.2227C38.9762 28.34 39.5767 28.2868 40.1266 28.0696C40.7187 27.8325 41.242 27.4497 41.6487 26.9563C42.0679 26.4744 42.3625 25.896 42.5066 25.2724C42.6299 24.7073 42.5915 24.1186 42.3959 23.5746C42.1782 23.0304 41.8257 22.5513 41.372 22.1829L35.3253 16.9503Z" fill="white"/>
<path d="M47.3218 21.5149L38.148 13.6243L40.8046 10.507C41.2288 9.97189 41.7745 9.54712 42.3959 9.26839C42.9099 9.0639 43.4701 9.00611 44.0148 9.10139C44.5694 9.22491 45.0836 9.48831 45.5091 9.8668C45.8566 10.1478 46.1358 10.5047 46.3255 10.9105C46.4873 11.2481 46.5588 11.6222 46.5331 11.996C46.5156 12.3626 46.4263 12.722 46.2702 13.0537H46.3394C46.6369 12.7864 46.9999 12.6039 47.3909 12.5249C47.8447 12.407 48.3208 12.407 48.7746 12.5249C49.3148 12.662 49.8153 12.9249 50.2359 13.2923C50.6565 13.6598 50.9854 14.1214 51.1961 14.6402C51.3719 15.1923 51.3719 15.7858 51.1961 16.338C50.9864 17.0442 50.617 17.692 50.1168 18.2306L47.3218 21.5149ZM43.0185 16.338L45.011 14C45.3219 13.6769 45.5458 13.2793 45.6614 12.8449C45.7452 12.4553 45.7164 12.0496 45.5783 11.6759C45.4411 11.282 45.1966 10.9348 44.8727 10.674C44.6602 10.4762 44.4087 10.3257 44.1345 10.2322C43.8603 10.1386 43.5697 10.1042 43.2814 10.1312C42.9338 10.1678 42.5974 10.2755 42.2928 10.4479C41.9882 10.6202 41.7219 10.8534 41.5103 11.1332L39.6285 13.4294L43.0185 16.338ZM47.2941 20.0258L49.3696 17.5905C49.9015 17.0629 50.2133 16.3512 50.2413 15.6004C50.2309 15.3067 50.159 15.0185 50.0302 14.7548C49.9015 14.491 49.7188 14.2575 49.4941 14.0696C49.1645 13.7808 48.7626 13.5883 48.3319 13.5129C47.8998 13.4299 47.4532 13.4734 47.045 13.6382C46.5886 13.8244 46.1846 14.1207 45.8689 14.501L43.7519 16.9781L47.2941 20.0258Z" fill="white"/>
<path d="M54.3647 13.2485L45.1909 5.35785L49.8124 0L50.5734 0.654076L46.6576 5.16302L50.1168 8.12724L53.7144 3.95229L54.4615 4.59245L50.864 8.7674L54.3232 11.7455L58.239 7.15308L59 7.79324L54.3647 13.2485Z" fill="white"/>
</svg>
