<svg width="0" height="0" class="hidden">
  <symbol  xmlns="http://www.w3.org/2000/svg" viewBox="0 0 64 69" id="TELEGRAM">
    <path d="M0.739726 64.7414L0 64.1115L5.64384 57.5114L6.38356 58.1413L3.91781 61.0306L12.3288 68.1784L11.6164 69L3.20548 61.8658L0.739726 64.7414Z" ></path>
    <path d="M16.2466 63.5227L7.16438 55.745L11.6712 50.4731L12.4247 51.1167L8.61644 55.5533L12.0411 58.4836L15.6027 54.3757L16.3425 55.0192L12.7808 59.1272L16.2055 62.0576L20.0822 57.5114L20.8356 58.155L16.2466 63.5227Z" ></path>
    <path d="M22.4247 56.3064L13.3425 48.5287L14.0548 47.7071L22.3836 54.8412L26.0959 50.5142L26.8356 51.1441L22.4247 56.3064Z" ></path>
    <path d="M28.3425 49.405L19.2603 41.6273L23.7671 36.3554L24.5068 36.999L20.7123 41.4356L24.137 44.3659L27.6849 40.258L28.4384 40.9016L24.8767 45.0095L28.3014 47.9262L32.1781 43.4074L32.9178 44.051L28.3425 49.405Z" ></path>
    <path d="M33.6438 30.5769C33.2754 30.3986 32.8833 30.274 32.4795 30.2072C32.0805 30.1387 31.6729 30.1387 31.274 30.2072C30.8667 30.2656 30.4754 30.4053 30.1233 30.618C29.6021 30.915 29.1558 31.3274 28.8187 31.8234C28.4815 32.3195 28.2624 32.8861 28.1781 33.4799C28.0857 34.2453 28.219 35.0211 28.5616 35.7118C28.9737 36.5648 29.5675 37.3173 30.3014 37.9165C31.0075 38.541 31.8388 39.0078 32.7397 39.2858C33.4869 39.5022 34.2802 39.5022 35.0274 39.2858C35.7083 39.0637 36.3193 38.6677 36.7998 38.1369C37.2804 37.606 37.6138 36.9589 37.7671 36.2596C37.8881 35.6154 37.8215 34.95 37.5753 34.3425C37.2635 33.6546 36.7942 33.0495 36.2055 32.5761L36.5069 32.3844L34.0685 35.3284L33.3151 34.6849L36.274 31.2342L37.0137 31.8778C37.7353 32.4507 38.289 33.2076 38.6164 34.0687C38.9157 34.8354 38.9871 35.6723 38.8219 36.4787C38.6389 37.3222 38.2427 38.1047 37.6712 38.7517C37.0616 39.5039 36.2412 40.057 35.3151 40.3401C34.3971 40.6001 33.4249 40.6001 32.5068 40.3401C31.4331 40.021 30.4451 39.4641 29.6164 38.7107C28.9526 38.1639 28.3833 37.5116 27.9315 36.7799C27.5374 36.1489 27.272 35.4462 27.1507 34.7122C27.0403 34.036 27.0824 33.3436 27.274 32.6857C27.4659 31.996 27.8126 31.3591 28.2877 30.8234C28.675 30.3607 29.1383 29.9671 29.6575 29.6595C30.1473 29.3905 30.6805 29.2098 31.2329 29.1254C31.768 29.0363 32.3142 29.0363 32.8493 29.1254C33.3681 29.2365 33.8669 29.4258 34.3288 29.6868L33.6438 30.5769Z" ></path>
    <path d="M42.4658 32.8637L33.3836 25.0859L35.8904 22.1556C36.3482 21.5624 36.9459 21.092 37.6301 20.7863C38.1992 20.5564 38.8233 20.4993 39.4247 20.622C40.0538 20.7715 40.6369 21.0723 41.1233 21.4983C41.6169 21.9076 41.9986 22.4352 42.2329 23.0319C42.4547 23.6041 42.4929 24.2309 42.3425 24.8258C42.1618 25.531 41.8088 26.1803 41.3151 26.7154L39.1781 29.2076L38.4247 28.564L40.5342 26.0855C40.9009 25.6985 41.1688 25.2288 41.3151 24.7162C41.4299 24.2954 41.4059 23.8488 41.2466 23.4427C41.0718 23.0089 40.7889 22.6271 40.4247 22.3336C40.0711 22.0131 39.6423 21.7871 39.1781 21.6763C38.7466 21.5807 38.2959 21.6238 37.8904 21.7996C37.3908 22.0116 36.9527 22.3459 36.6164 22.7718L34.8356 24.8531L43.1781 31.9873L42.4658 32.8637ZM41.7945 25.3461L47.8082 26.6196L46.9863 27.5781L41.0959 26.3046L41.7945 25.3461Z" ></path>
    <path d="M49.6027 24.5656L48.863 25.4283L42.6164 14.3642L43.3699 13.4741L55.2877 17.9381L54.5342 18.8144L44.0959 14.8023L49.6027 24.5656ZM46.6712 20.9643L50.5205 16.4318L51.2603 17.0617L47.411 21.5668L46.6712 20.9643Z" ></path>
    <path d="M47.5616 8.58563L48.3836 7.62711L59.1096 11.1052L59.1781 11.023L54.0959 0.958524L54.9178 0L64 7.77773L63.3288 8.55825L56 2.27307L55.9315 2.35523L60.6438 11.6803L60 12.4334L50.0411 9.22921L57.3699 15.5007L56.6986 16.2812L47.5616 8.58563Z" ></path>
  </symbol>
  <symbol  xmlns="http://www.w3.org/2000/svg" viewBox="0 0 55 56" id="TWITTER">
    <path d="M0.748488 51.7405L0 51.1105L5.71069 44.5228L6.45917 45.1665L3.96421 48.0426L12.4748 55.1782L11.754 56L3.24345 48.8644L0.748488 51.7405Z" ></path>
    <path d="M18.1439 48.5494L6.8057 43.2627L7.52646 42.4684L17.2291 47.0976V47.0291L11.158 38.2363L11.9897 37.2776L21.6923 41.9068V41.8247L15.5658 33.0866L16.3004 32.2375L23.3833 42.4684L22.6071 43.3449L13.0015 38.9074L18.9617 47.6044L18.1439 48.5494Z" ></path>
    <path d="M18.435 29.827L27.6247 37.6063L26.904 38.4417L17.7142 30.6624L18.435 29.827Z" ></path>
    <path d="M20.6943 28.7724L19.9458 28.1287L25.6565 21.5546L26.405 22.1846L23.91 25.0608L32.3513 32.1964L31.6305 33.0318L23.1893 25.8962L20.6943 28.7724Z" ></path>
    <path d="M27.7218 20.678L26.9594 20.0343L32.6701 13.4603L33.4186 14.0903L30.9236 16.9664L39.3649 24.102L38.6442 24.9375L30.1752 17.8156L27.7218 20.678Z" ></path>
    <path d="M43.3291 19.4728L34.1532 11.7072L38.7135 6.43421L39.4619 7.07793L35.6225 11.5154L39.0738 14.4327L42.6777 10.3239L43.44 10.9539L39.8362 15.0627L43.3014 17.9936L47.224 13.474L47.9725 14.104L43.3291 19.4728Z" ></path>
    <path d="M49.5943 12.255L40.4045 4.48938L42.9688 1.55844C43.4297 0.968528 44.0291 0.498443 44.7152 0.188843C45.2928 -0.0177034 45.9183 -0.0557381 46.5171 0.0792749C47.1506 0.226155 47.7368 0.527509 48.222 0.955818C48.7283 1.36183 49.1198 1.89023 49.3586 2.48977C49.5758 3.05878 49.6144 3.67922 49.4695 4.27025C49.2872 4.97985 48.9301 5.63386 48.4299 6.17399L46.2676 8.66666L45.4914 8.02295L47.6399 5.48919C48.0058 5.09841 48.2761 4.62985 48.4299 4.11959C48.5628 3.70516 48.5628 3.2603 48.4299 2.84586C48.2492 2.41044 47.958 2.02837 47.5844 1.73649C47.2299 1.41892 46.8013 1.19305 46.3369 1.07908C45.8753 0.963813 45.3881 1.00233 44.9509 1.18865C44.4543 1.41542 44.0178 1.75298 43.6757 2.17476L41.8737 4.25655L50.3012 11.3922L49.5943 12.255ZM48.9151 4.74961L55 6.02333L54.1684 6.98205L48.0973 5.61245L48.9151 4.74961Z" ></path>
  </symbol>
  <symbol  xmlns="http://www.w3.org/2000/svg" viewBox="0 0 59 63" id="YOUTUBE">
    <path d="M0 58.4493L0.830206 57.4751L7.51337 58.4493H7.58255L5.53471 51.9085L6.36492 50.9344L8.731 58.7416L12.7022 62.165L11.9965 63L8.03917 59.5765L0 58.4493Z" ></path>
    <path d="M18.2645 46.3141C19.1383 47.0385 19.8383 47.9518 20.3124 48.9861C20.7145 49.8544 20.8678 50.8183 20.7552 51.7694C20.6238 52.7254 20.2147 53.621 19.579 54.3439C18.9707 55.0854 18.1566 55.628 17.2406 55.9026C16.3134 56.1668 15.3313 56.1668 14.4041 55.9026C13.3165 55.5897 12.3136 55.033 11.4707 54.2744C10.5998 53.5605 9.89591 52.6625 9.40901 51.6441C9.01441 50.7737 8.866 49.8106 8.98007 48.8608C9.10918 47.9083 9.5188 47.0165 10.1562 46.3002C10.7469 45.5462 11.546 44.9846 12.4531 44.6859C13.3804 44.4216 14.3624 44.4216 15.2896 44.6859C16.3919 44.9929 17.4096 45.5499 18.2645 46.3141ZM17.5589 47.1352C16.8497 46.4947 16.0087 46.0195 15.0959 45.7435C14.3406 45.5281 13.5405 45.5281 12.7852 45.7435C12.0649 45.9674 11.4225 46.3923 10.9326 46.9687C10.4428 47.5451 10.1256 48.2495 10.0178 49C9.92615 49.781 10.0557 50.5721 10.3914 51.2823C10.8076 52.1492 11.4074 52.9139 12.1487 53.5229C12.8599 54.1604 13.7002 54.6353 14.6116 54.9145C15.367 55.13 16.167 55.13 16.9224 54.9145C17.6494 54.7045 18.296 54.2775 18.7765 53.6899C19.2726 53.1174 19.5902 52.4108 19.6897 51.6581C19.7976 50.8778 19.6874 50.0827 19.3715 49.3618C18.9372 48.4947 18.3183 47.7345 17.5589 47.1352Z" ></path>
    <path d="M20.6306 34.1928L21.3501 33.3579L27.4245 38.5765C28.0189 39.0788 28.4681 39.7325 28.7251 40.4692C28.962 41.1876 29.0003 41.9572 28.8358 42.6958C28.6387 43.5114 28.2387 44.2632 27.6735 44.8807C27.1426 45.5065 26.4615 45.9856 25.6949 46.2724C24.9967 46.5523 24.2345 46.6295 23.4948 46.495C22.7342 46.3636 22.025 46.0214 21.447 45.507L15.4003 40.3579L16.1198 39.5089L22.1388 44.6859C22.5835 45.0864 23.1293 45.356 23.7162 45.4652C24.2817 45.5815 24.8687 45.5283 25.4043 45.3121C25.9949 45.0796 26.5148 44.6958 26.9125 44.1988C27.3432 43.7229 27.6435 43.1427 27.7842 42.5149C27.9076 41.9498 27.8692 41.3611 27.6735 40.8171C27.4559 40.2729 27.1034 39.7939 26.6496 39.4254L20.6306 34.1928Z" ></path>
    <path d="M23.6332 32.2167L22.8722 31.5626L28.5729 24.8688L29.3201 25.5229L26.8295 28.4453L35.2561 35.6958L34.5366 36.5447L26.1238 29.2247L23.6332 32.2167Z" ></path>
    <path d="M35.3253 16.9503L36.031 16.1014L42.1053 21.334C42.7002 21.8301 43.1498 22.4795 43.406 23.2127C43.6429 23.9311 43.6811 24.7008 43.5167 25.4394C43.328 26.2565 42.9378 27.0127 42.382 27.6382C41.854 28.2776 41.1798 28.779 40.4172 29.0994C39.7044 29.3767 38.9292 29.4507 38.1773 29.3132C37.4253 29.1756 36.7257 28.832 36.1555 28.3201L30.0811 23.1014L30.8007 22.2525L36.8197 27.4294C37.267 27.8286 37.8111 28.1022 38.397 28.2227C38.9762 28.34 39.5767 28.2868 40.1266 28.0696C40.7187 27.8325 41.242 27.4497 41.6487 26.9563C42.0679 26.4744 42.3625 25.896 42.5066 25.2724C42.6299 24.7073 42.5915 24.1186 42.3959 23.5746C42.1782 23.0304 41.8257 22.5513 41.372 22.1829L35.3253 16.9503Z" ></path>
    <path d="M47.3218 21.5149L38.148 13.6243L40.8046 10.507C41.2288 9.97189 41.7745 9.54712 42.3959 9.26839C42.9099 9.0639 43.4701 9.00611 44.0148 9.10139C44.5694 9.22491 45.0836 9.48831 45.5091 9.8668C45.8566 10.1478 46.1358 10.5047 46.3255 10.9105C46.4873 11.2481 46.5588 11.6222 46.5331 11.996C46.5156 12.3626 46.4263 12.722 46.2702 13.0537H46.3394C46.6369 12.7864 46.9999 12.6039 47.3909 12.5249C47.8447 12.407 48.3208 12.407 48.7746 12.5249C49.3148 12.662 49.8153 12.9249 50.2359 13.2923C50.6565 13.6598 50.9854 14.1214 51.1961 14.6402C51.3719 15.1923 51.3719 15.7858 51.1961 16.338C50.9864 17.0442 50.617 17.692 50.1168 18.2306L47.3218 21.5149ZM43.0185 16.338L45.011 14C45.3219 13.6769 45.5458 13.2793 45.6614 12.8449C45.7452 12.4553 45.7164 12.0496 45.5783 11.6759C45.4411 11.282 45.1966 10.9348 44.8727 10.674C44.6602 10.4762 44.4087 10.3257 44.1345 10.2322C43.8603 10.1386 43.5697 10.1042 43.2814 10.1312C42.9338 10.1678 42.5974 10.2755 42.2928 10.4479C41.9882 10.6202 41.7219 10.8534 41.5103 11.1332L39.6285 13.4294L43.0185 16.338ZM47.2941 20.0258L49.3696 17.5905C49.9015 17.0629 50.2133 16.3512 50.2413 15.6004C50.2309 15.3067 50.159 15.0185 50.0302 14.7548C49.9015 14.491 49.7188 14.2575 49.4941 14.0696C49.1645 13.7808 48.7626 13.5883 48.3319 13.5129C47.8998 13.4299 47.4532 13.4734 47.045 13.6382C46.5886 13.8244 46.1846 14.1207 45.8689 14.501L43.7519 16.9781L47.2941 20.0258Z" ></path>
    <path d="M54.3647 13.2485L45.1909 5.35785L49.8124 0L50.5734 0.654076L46.6576 5.16302L50.1168 8.12724L53.7144 3.95229L54.4615 4.59245L50.864 8.7674L54.3232 11.7455L58.239 7.15308L59 7.79324L54.3647 13.2485Z" ></path>
  </symbol>
  <symbol  xmlns="http://www.w3.org/2000/svg" viewBox="0 0 65 73" id="FACEBOOK">
    <path d="M9.22213 73L0 65.116L4.56238 59.7905L5.32741 60.444L1.47443 64.9213L4.95185 67.883L8.44318 63.809L9.19431 64.4625L5.70297 68.5366L9.94543 72.1657L9.22213 73Z" ></path>
    <path d="M14.9807 66.284L14.2296 67.16L7.87289 55.911L8.65183 55.0072L20.7394 59.5541L19.9882 60.4301L9.38904 56.3699L14.9807 66.284ZM11.9902 62.5714L15.9127 57.9968L16.6638 58.6503L12.7413 63.2667L11.9902 62.5714Z" ></path>
    <path d="M21.6157 45.705L20.8924 46.5531C20.5293 46.3491 20.1342 46.2081 19.7239 46.136C19.3183 46.0735 18.9055 46.0735 18.4999 46.136C18.0801 46.2127 17.6759 46.3584 17.3037 46.5671C16.914 46.7995 16.5661 47.0956 16.2743 47.443C15.7836 47.9969 15.4688 48.6842 15.3702 49.4175C15.262 50.1998 15.3828 50.9967 15.718 51.7118C16.134 52.5951 16.7423 53.3742 17.4984 53.9922C18.2327 54.6319 19.0961 55.1061 20.03 55.3827C20.7887 55.6025 21.5942 55.6025 22.3529 55.3827C23.0554 55.1605 23.6817 54.7463 24.1611 54.1869C24.456 53.8413 24.6954 53.4519 24.8705 53.0328C25.0203 52.6365 25.1049 52.2186 25.1209 51.7952C25.1242 51.3805 25.0632 50.9677 24.9401 50.5716C24.8019 50.1796 24.5998 49.8131 24.342 49.487L25.0374 48.6667C25.3812 49.085 25.658 49.5541 25.8581 50.0571C26.2387 51.1036 26.2387 52.2505 25.8581 53.297C25.644 53.8638 25.3282 54.3869 24.9262 54.8404C24.3154 55.5851 23.4973 56.1319 22.5754 56.4116C21.6433 56.6756 20.6561 56.6756 19.7239 56.4116C18.629 56.0958 17.6205 55.5347 16.7751 54.7709C15.8933 54.0526 15.1849 53.1448 14.7025 52.115C14.3052 51.2455 14.1559 50.2831 14.2713 49.3341C14.4044 48.3834 14.8158 47.4932 15.4537 46.7756C15.8454 46.3117 16.3163 45.9209 16.8446 45.6215C17.3322 45.3488 17.8644 45.1652 18.4164 45.0792C19.5143 44.9053 20.6384 45.1271 21.5878 45.705H21.6157Z" ></path>
    <path d="M29.6416 49.1533L20.4194 41.2693L25.0374 35.916L25.7886 36.5695L21.9356 41.0747L25.3991 44.0503L29.0156 39.8789L29.7667 40.5185L26.1641 44.6899L29.6416 47.6655L33.5502 43.1048L34.3013 43.7444L29.6416 49.1533Z" ></path>
    <path d="M35.9426 41.7977L26.7205 33.9137L29.3912 30.799C29.8176 30.2644 30.3661 29.84 30.9908 29.5615C31.5043 29.3441 32.0713 29.286 32.6182 29.3947C33.1779 29.512 33.6964 29.776 34.1205 30.1594C34.4698 30.4402 34.7504 30.7968 34.9412 31.2023C35.1038 31.5396 35.1757 31.9134 35.1498 32.2869C35.1323 32.6531 35.0424 33.0122 34.8855 33.3436H34.9551C35.2477 33.0564 35.6132 32.8545 36.0122 32.7596C36.4684 32.6419 36.947 32.6419 37.4032 32.7596C37.9465 32.9014 38.4487 33.1692 38.8692 33.5412C39.2897 33.9133 39.6166 34.3791 39.8235 34.901C40.0002 35.4526 40.0002 36.0457 39.8235 36.5973C39.6127 37.303 39.2413 37.9502 38.7385 38.4884L35.9426 41.7977ZM31.6167 36.6251L33.6197 34.2891C33.9121 33.9602 34.1177 33.5635 34.2178 33.135C34.3022 32.7457 34.2732 32.3404 34.1344 31.967C33.9965 31.5735 33.7507 31.2266 33.425 30.9659C33.2114 30.7683 32.9586 30.6179 32.683 30.5245C32.4074 30.431 32.1152 30.3967 31.8254 30.4236C31.4915 30.4728 31.1708 30.5879 30.8819 30.7622C30.5929 30.9364 30.3415 31.1664 30.1423 31.4387L28.2089 33.719L31.6167 36.6251ZM35.9148 40.3238L38.0013 37.8905C38.5625 37.3695 38.9013 36.6524 38.9471 35.8882C38.9394 35.5942 38.8682 35.3054 38.7386 35.0415C38.609 34.7775 38.4239 34.5446 38.196 34.3587C37.8647 34.0701 37.4606 33.8777 37.0276 33.8025C36.5933 33.7195 36.1443 33.763 35.734 33.9276C35.2751 34.1137 34.8691 34.4098 34.5517 34.7897L32.3539 37.2648L35.9148 40.3238Z" ></path>
    <path d="M44.7892 22.1503C45.6707 22.871 46.375 23.7844 46.8479 24.82C47.2521 25.6876 47.4062 26.6506 47.293 27.601C47.1554 28.5572 46.7394 29.4518 46.0967 30.1733C45.4906 30.9138 44.6768 31.4561 43.7599 31.7307C42.8231 31.9951 41.8313 31.9951 40.8945 31.7307C39.8056 31.4175 38.802 30.8612 37.9596 30.1038C37.0808 29.3825 36.373 28.4755 35.887 27.448C35.4863 26.5794 35.3323 25.6173 35.4419 24.667C35.587 23.713 35.9941 22.818 36.6179 22.0815C37.2416 21.345 38.0576 20.796 38.975 20.4956C39.9118 20.2312 40.9035 20.2312 41.8404 20.4956C42.9348 20.8195 43.9426 21.385 44.7892 22.1503ZM44.0798 22.9707C43.3648 22.3336 42.5201 21.8592 41.6039 21.5802C40.8446 21.3649 40.0403 21.3649 39.281 21.5802C38.554 21.7985 37.9063 22.2237 37.4171 22.8038C36.9184 23.3758 36.5991 24.0818 36.499 24.8339C36.4065 25.6157 36.5418 26.4075 36.8885 27.1143C37.3022 27.9834 37.9059 28.7484 38.655 29.353C39.37 29.99 40.2148 30.4644 41.131 30.7434C41.8903 30.9587 42.6946 30.9587 43.4539 30.7434C44.1833 30.5304 44.8324 30.1043 45.3178 29.5198C45.8165 28.9478 46.1357 28.2418 46.2358 27.4897C46.3437 26.7088 46.2279 25.9133 45.902 25.1954C45.4714 24.3252 44.8482 23.5644 44.0798 22.9707Z" ></path>
    <path d="M53.0098 12.5143C53.8876 13.2331 54.5913 14.141 55.0685 15.1701C55.4699 16.0385 55.6239 17.0008 55.5136 17.951C55.3685 18.9051 54.9614 19.8001 54.3376 20.5366C53.7139 21.2731 52.8979 21.8221 51.9805 22.1225C51.0702 22.3735 50.1089 22.3735 49.1986 22.1225C48.107 21.7988 47.1001 21.2386 46.2497 20.4817C45.368 19.7634 44.6596 18.8556 44.1772 17.8259C43.7798 16.9564 43.6306 15.9939 43.746 15.045C43.8849 14.0886 44.2898 13.1906 44.9144 12.453C45.5391 11.7155 46.3584 11.1682 47.2791 10.8735C48.2091 10.5949 49.2005 10.5949 50.1305 10.8735C51.2004 11.1997 52.184 11.7603 53.0098 12.5143ZM52.3004 13.3347C51.5909 12.6901 50.7444 12.2147 49.8245 11.9442C49.0658 11.7244 48.2603 11.7244 47.5016 11.9442C46.7765 12.1581 46.1321 12.5843 45.6516 13.1678C45.1533 13.7346 44.8339 14.4361 44.7336 15.184C44.6387 15.9689 44.769 16.7646 45.1091 17.4783C45.5275 18.3444 46.1305 19.1085 46.8757 19.717C47.5899 20.3551 48.4349 20.8296 49.3516 21.1074C50.1103 21.3272 50.9158 21.3272 51.6745 21.1074C52.4054 20.8976 53.0554 20.4709 53.5384 19.8838C54.0367 19.317 54.3562 18.6155 54.4565 17.8676C54.5513 17.0827 54.421 16.2871 54.0809 15.5733C53.6564 14.7189 53.0485 13.9688 52.3004 13.3764V13.3347Z" ></path>
    <path d="M59.3944 14.4192L50.1723 6.53524L50.8956 5.68705L55.8613 9.94191L55.9309 9.85848L54.8181 1.11238L55.764 0L56.6542 7.592L65 7.91181L64.1237 8.94076L56.8211 8.60705L57.1549 11.0126L60.1455 13.585L59.3944 14.4192Z" ></path>
  </symbol>
  <symbol xmlns="http://www.w3.org/2000/svg" viewBox="0 0 69 78" id="INSTAGRAM">
    <path d="M0.716311 69.3195L9.84927 77.1707L9.13296 78L0 70.1489L0.716311 69.3195Z"></path>
    <path d="M8.94011 59.6715L18.0731 67.5226L17.3705 68.3381L5.1106 67.177L12.7558 73.7565L11.9844 74.6412L2.85147 66.8176L3.54023 66.0021L15.8277 67.1494L8.26512 60.5008L8.94011 59.6715Z"></path>
    <path d="M17.5496 54.2254C17.2957 54.0372 17.0037 53.9075 16.6942 53.8453C16.3847 53.7832 16.0653 53.7903 15.7588 53.866C15.0703 54.0304 14.4581 54.4253 14.0232 54.9856C13.6787 55.3607 13.4242 55.8099 13.2793 56.2988C13.156 56.7136 13.156 57.1556 13.2793 57.5704C13.3721 57.9761 13.5947 58.3402 13.913 58.6071C14.1329 58.8002 14.3985 58.9335 14.6844 58.9942C14.9571 59.0493 15.2381 59.0493 15.5109 58.9942C15.8011 58.9236 16.0828 58.8216 16.3512 58.6901C16.6221 58.5545 16.8843 58.4022 17.1364 58.2339L18.2384 57.5013C18.5775 57.2743 18.9319 57.0711 19.2991 56.8931C19.667 56.7125 20.0556 56.5779 20.4562 56.4923C20.846 56.4024 21.251 56.4024 21.6408 56.4923C22.0744 56.5969 22.4762 56.8056 22.8117 57.1005C23.2798 57.5023 23.6238 58.0298 23.8036 58.6209C23.976 59.2356 23.976 59.8861 23.8036 60.5008C23.5869 61.2447 23.2055 61.9299 22.6878 62.5051C22.2333 63.0874 21.6543 63.5598 20.9934 63.8873C20.4426 64.1601 19.8289 64.2794 19.2164 64.2329C18.615 64.1788 18.0414 63.9534 17.5634 63.5832L18.3072 62.7262C18.6574 62.9914 19.081 63.1411 19.5195 63.1547C19.9628 63.1513 20.3983 63.0373 20.7868 62.823C21.2259 62.5825 21.6143 62.2585 21.9301 61.8692C22.2882 61.466 22.5642 60.9964 22.7429 60.487C22.8927 60.0415 22.9166 59.563 22.8117 59.1047C22.7112 58.6618 22.4694 58.2638 22.123 57.9713C21.8452 57.7279 21.4983 57.578 21.1312 57.5428C20.752 57.5328 20.3754 57.6084 20.0291 57.764C19.6 57.9501 19.1894 58.1769 18.8032 58.4413L17.5496 59.2568C16.8561 59.7407 16.0584 60.0533 15.2216 60.1691C14.8553 60.2042 14.4858 60.1567 14.1401 60.0299C13.7945 59.9032 13.4816 59.7004 13.2242 59.4365C12.7451 59.0555 12.4059 58.5255 12.2599 57.9298C12.095 57.3329 12.095 56.7022 12.2599 56.1053C12.4563 55.4451 12.7949 54.8364 13.2517 54.3222C13.6786 53.7862 14.2263 53.3598 14.8497 53.0782C15.3948 52.8197 15.9983 52.7101 16.5991 52.7602C17.1861 52.8153 17.7429 53.0465 18.197 53.4237L17.5496 54.2254Z"></path>
    <path d="M17.9078 50.6454L17.1501 50.0096L22.8255 43.361L23.5694 44.0106L21.0898 46.9133L29.4789 54.1148L28.7626 54.9442L20.3735 47.7427L17.9078 50.6454Z"></path>
    <path d="M32.6335 50.4657L31.8758 51.3365L25.5943 40.168L26.352 39.2695L38.3364 43.7757L37.5788 44.6603L27.0821 40.6103V40.6794L32.6335 50.4657ZM29.6718 46.8304L33.5426 42.2828L34.3003 42.9325L30.4157 47.4662L29.6718 46.8304Z"></path>
    <path d="M38.5706 30.824C38.1985 30.648 37.8048 30.5225 37.3997 30.4508C36.9985 30.3817 36.5886 30.3817 36.1875 30.4508C35.7773 30.5245 35.3819 30.6645 35.0166 30.8655C34.621 31.0999 34.2672 31.3989 33.9697 31.7501C33.4733 32.3117 33.1566 33.01 33.0605 33.7544C32.9778 34.5327 33.1163 35.3186 33.46 36.0213C33.8706 36.8807 34.4685 37.6365 35.2094 38.2329C35.9175 38.8661 36.7541 39.3377 37.6614 39.6151C38.4128 39.8336 39.2105 39.8336 39.9619 39.6151C40.6465 39.391 41.261 38.9912 41.7442 38.4553C42.2275 37.9195 42.5628 37.2663 42.7169 36.5603C42.8399 35.909 42.768 35.2356 42.5103 34.6252C42.2093 33.927 41.7351 33.3179 41.1328 32.8559L41.4496 32.6486L38.9425 35.5928L38.1986 34.9431L41.1603 31.4599L41.9179 32.1095C42.6316 32.6994 43.1858 33.4599 43.5296 34.3211C43.8299 35.0953 43.9016 35.9398 43.7363 36.7539C43.5522 37.6053 43.1538 38.3953 42.5792 39.0484C41.9633 39.8046 41.1393 40.3622 40.2098 40.6518C39.2867 40.9142 38.309 40.9142 37.3859 40.6518C36.297 40.3432 35.29 39.7955 34.438 39.0484C33.773 38.4884 33.2011 37.8259 32.7437 37.0856C32.3515 36.4502 32.0806 35.7471 31.9447 35.0122C31.8335 34.325 31.8758 33.6215 32.0687 32.9527C32.2722 32.2579 32.6249 31.6163 33.1018 31.0728C33.4884 30.6028 33.9547 30.205 34.4793 29.8979C34.9718 29.6265 35.508 29.444 36.0635 29.3589C37.1402 29.1861 38.2432 29.4016 39.1767 29.967L38.5706 30.824Z"></path>
    <path d="M47.4005 33.1738L38.2675 25.3227L40.7884 22.3647C41.2487 21.766 41.8498 21.291 42.5378 20.9825C43.11 20.7505 43.7377 20.6928 44.3424 20.8166C44.9699 20.9722 45.5523 21.2734 46.0427 21.6959C46.5332 22.1184 46.918 22.6505 47.1663 23.2493C47.3893 23.8268 47.4278 24.4596 47.2765 25.0601C47.0948 25.7719 46.7398 26.4274 46.2434 26.9676L44.0807 29.5247L43.323 28.8751L45.4582 26.3732C45.8269 25.9825 46.0962 25.5084 46.2434 24.991C46.381 24.5736 46.381 24.1228 46.2434 23.7055C46.0676 23.2676 45.7831 22.8821 45.4169 22.5859C45.0613 22.2624 44.6301 22.0342 44.1633 21.9224C43.7294 21.8258 43.2762 21.8694 42.8684 22.0468C42.3661 22.2608 41.9255 22.5983 41.5873 23.0282L39.7966 25.1292L48.1857 32.3307L47.4005 33.1738ZM46.7255 25.5853L52.7728 26.8708L51.9463 27.8384L45.9265 26.5391L46.7255 25.5853Z"></path>
    <path d="M54.536 24.7974L53.7784 25.6683L47.4969 14.4997L48.2132 13.6013L60.1976 18.1074L59.44 18.992L48.9433 14.9421L54.536 24.7974ZM51.5744 21.1621L55.4452 16.5869L56.2028 17.2228L52.3458 21.798L51.5744 21.1621Z"></path>
    <path d="M52.4698 8.66667L53.2963 7.6991L64.096 11.21V11.1271L59.0405 0.96757L59.867 0L69 7.85114L68.325 8.63902L60.9553 2.29452V2.37746L65.6802 11.7905L65.0327 12.5508L54.9631 9.31632L62.3328 15.647L61.6578 16.4349L52.4698 8.66667Z"></path>
  </symbol>
</svg>